<?xml version="1.0" encoding="utf-8"?>
<!-- Generator: Adobe Illustrator 16.0.0, SVG Export Plug-In . SVG Version: 6.00 Build 0)  -->
<!DOCTYPE svg PUBLIC "-//W3C//DTD SVG 1.1//EN" "http://www.w3.org/Graphics/SVG/1.1/DTD/svg11.dtd">
<svg version="1.1" id="Layer_1" xmlns="http://www.w3.org/2000/svg" xmlns:xlink="http://www.w3.org/1999/xlink" x="0px" y="0px"
	 width="512px" height="512px" viewBox="0 0 512 512" enable-background="new 0 0 512 512" xml:space="preserve">
<path fill="#D3D3D3" d="M350.575,97.781c-8.699-8.703-20.27-13.492-32.573-13.492c-12.305,0-23.875,4.789-32.574,13.492
	c-17.965,17.961-17.965,47.188,0,65.148c8.98,8.984,20.773,13.473,32.574,13.473c11.793,0,23.594-4.492,32.573-13.473
	C368.536,144.969,368.536,115.742,350.575,97.781z M339.97,152.324c-10.285,10.285-26.048,11.836-37.984,4.656l16.681-16.68
	c2.93-2.93,2.93-7.68,0-10.609c-2.931-2.926-7.676-2.926-10.605,0l-16.684,16.684c-7.18-11.938-5.629-27.699,4.656-37.988
	c5.871-5.867,13.672-9.098,21.969-9.098c8.301,0,16.102,3.23,21.969,9.098C352.082,120.5,352.082,140.211,339.97,152.324z"/>
<path fill="#D3D3D3" d="M225.572,162.929c17.965-17.961,17.965-47.188,0-65.148c-8.699-8.703-20.27-13.492-32.573-13.492
	c-12.305,0-23.875,4.789-32.574,13.492c-17.961,17.961-17.961,47.188,0,65.148c8.979,8.98,20.777,13.473,32.574,13.473
	C204.795,176.402,216.592,171.909,225.572,162.929z M171.029,108.386c5.867-5.867,13.673-9.102,21.97-9.102
	c8.296,0,16.102,3.234,21.968,9.102c12.113,12.113,12.113,31.824,0,43.938c-10.284,10.285-26.046,11.84-37.987,4.656l16.685-16.684
	c2.93-2.93,2.93-7.676,0-10.605c-2.927-2.93-7.677-2.93-10.605,0l-16.684,16.684C159.193,134.433,160.745,118.671,171.029,108.386z"
	/>
<path fill="#D3D3D3" d="M279.895,47.254c0-13.176-10.719-23.895-23.895-23.895c-13.176,0-23.895,10.719-23.895,23.895
	c0,13.176,10.719,23.894,23.895,23.894C269.176,71.148,279.895,60.43,279.895,47.254z M247.105,47.254
	c0-4.906,3.992-8.895,8.895-8.895c4.903,0,8.895,3.988,8.895,8.895c0,4.902-3.992,8.895-8.895,8.895
	C251.097,56.149,247.105,52.156,247.105,47.254z"/>
<path fill="#D3D3D3" d="M130.813,268.273V452.43c0,16.971,10.539,30.773,23.496,30.773h203.383
	c12.957,0,23.496-13.804,23.496-30.773V268.273c0-16.971-10.539-30.773-23.496-30.773H154.309
	C141.352,237.5,130.813,251.303,130.813,268.273z M145.813,268.273c0-6.135,3.813-11.127,8.496-11.127h203.383
	c4.685,0,8.496,4.992,8.496,11.127V452.43c0,6.141-3.813,11.127-8.496,11.127H154.309c-4.684,0-8.496-4.986-8.496-11.127V268.273z"
	/>
<path fill="#D3D3D3" d="M420.5,232.5h-10.516v-195c0-20.68-16.824-37.5-37.5-37.5H139.516c-20.676,0-37.5,16.82-37.5,37.5v195H91.5
	c-9.648,0-17.5,7.852-17.5,17.5v16.035c0,9.648,7.852,17.5,17.5,17.5h10.516V474.5c0,20.68,16.824,37.5,37.5,37.5h232.968
	c20.677,0,37.501-16.82,37.501-37.5v-54c0-4.141-3.359-7.5-7.5-7.5c-4.142,0-7.5,3.359-7.5,7.5v54c0,12.406-10.095,22.5-22.501,22.5
	H139.516c-12.406,0-22.5-10.094-22.5-22.5V244.926c0-13.508,10.988-24.496,24.496-24.496h47.902c4.141,0,7.5-3.359,7.5-7.5
	c0-4.141-3.359-7.5-7.5-7.5h-47.902c-9.246,0-17.758,3.195-24.496,8.535V37.5c0-12.406,10.094-22.5,22.5-22.5h232.968
	c12.406,0,22.501,10.094,22.501,22.5v176.465c-6.738-5.34-15.251-8.535-24.497-8.535H220.509c-4.141,0-7.5,3.359-7.5,7.5
	c0,4.145,3.359,7.5,7.5,7.5h149.979c13.509,0,24.497,10.992,24.497,24.496v144.48c0,4.141,3.358,7.5,7.5,7.5
	c4.141,0,7.5-3.359,7.5-7.5V283.535H420.5c9.648,0,17.5-7.852,17.5-17.5V250C438,240.352,430.148,232.5,420.5,232.5z M91.5,268.535
	c-1.379,0-2.5-1.121-2.5-2.5V250c0-1.379,1.121-2.5,2.5-2.5h10.516v21.035H91.5z M423,266.035c0,1.379-1.121,2.5-2.5,2.5h-10.516
	V247.5H420.5c1.379,0,2.5,1.121,2.5,2.5V266.035z"/>
</svg>
